<?xml version="1.0" encoding="us-ascii" standalone="no"?><svg xmlns="http://www.w3.org/2000/svg" xmlns:xlink="http://www.w3.org/1999/xlink" contentStyleType="text/css" height="595px" preserveAspectRatio="none" style="width:309px;height:595px;background:#FFFFFF;" version="1.1" viewBox="0 0 309 595" width="309px" zoomAndPan="magnify"><defs/><g><!--class Naipe--><g id="elem_Naipe"><rect codeLine="7" fill="#F1F1F1" height="136.0469" id="Naipe" rx="2.5" ry="2.5" style="stroke:#181818;stroke-width:0.5;" width="130" x="7" y="434.5"/><ellipse cx="49.9" cy="450.5" fill="#EB937F" rx="11" ry="11" style="stroke:#181818;stroke-width:1.0;"/><path d="M48.7594,451.2969 L48.7594,453.7969 L53.0875,453.7969 L53.0875,452.875 Q53.0875,452.2656 53.3219,452 Q53.5719,451.7344 53.9469,451.7344 Q54.3219,451.7344 54.5563,452 Q54.7906,452.2656 54.7906,452.875 L54.7906,455.5 L46.7906,455.5 Q46.1656,455.5 45.9,455.2656 Q45.65,455.0313 45.65,454.6406 Q45.65,454.2656 45.9156,454.0313 Q46.1813,453.7969 46.7906,453.7969 L47.0563,453.7969 L47.0563,447.1406 L46.7906,447.1406 Q46.1656,447.1406 45.9,446.9063 Q45.65,446.6719 45.65,446.2813 Q45.65,445.9063 45.9,445.6719 Q46.1656,445.4375 46.7906,445.4375 L54.4156,445.4375 L54.4156,448.0313 Q54.4156,448.6406 54.1813,448.9063 Q53.9625,449.1563 53.5719,449.1563 Q53.1969,449.1563 52.9625,448.9063 Q52.7281,448.6406 52.7281,448.0313 L52.7281,447.1406 L48.7594,447.1406 L48.7594,449.5938 L50.2438,449.5938 Q50.2438,448.9375 50.3688,448.75 Q50.6344,448.3438 51.1031,448.3438 Q51.4781,448.3438 51.7125,448.6094 Q51.9469,448.8594 51.9469,449.4688 L51.9469,451.4375 Q51.9469,451.9844 51.8219,452.1719 Q51.5563,452.5625 51.1031,452.5625 Q50.6344,452.5625 50.3688,452.1563 Q50.2438,451.9688 50.2438,451.2969 L48.7594,451.2969 Z " fill="#000000"/><text fill="#000000" font-family="sans-serif" font-size="14" lengthAdjust="spacing" textLength="36" x="70.1" y="456.2285">Naipe</text><line style="stroke:#181818;stroke-width:0.5;" x1="8" x2="136" y1="466.5" y2="466.5"/><ellipse cx="18" cy="480.8047" fill="none" rx="3" ry="3" style="stroke:#038048;stroke-width:1.0;"/><text fill="#000000" font-family="sans-serif" font-size="14" lengthAdjust="spacing" textLength="50" x="27" y="485.0332">OUROS</text><ellipse cx="18" cy="498.4141" fill="none" rx="3" ry="3" style="stroke:#038048;stroke-width:1.0;"/><text fill="#000000" font-family="sans-serif" font-size="14" lengthAdjust="spacing" textLength="48" x="27" y="502.6426">COPAS</text><ellipse cx="18" cy="516.0234" fill="none" rx="3" ry="3" style="stroke:#038048;stroke-width:1.0;"/><text fill="#000000" font-family="sans-serif" font-size="14" lengthAdjust="spacing" textLength="64" x="27" y="520.252">ESPADAS</text><ellipse cx="18" cy="533.6328" fill="none" rx="3" ry="3" style="stroke:#038048;stroke-width:1.0;"/><text fill="#000000" font-family="sans-serif" font-size="14" lengthAdjust="spacing" textLength="36" x="27" y="537.8613">PAUS</text><line style="stroke:#181818;stroke-width:1.0;" x1="8" x2="136" y1="544.9375" y2="544.9375"/><text fill="#000000" font-family="sans-serif" font-size="14" lengthAdjust="spacing" textLength="118" x="13" y="563.4707">// Valores inferidos</text></g><!--class Valor--><g id="elem_Valor"><rect codeLine="16" fill="#F1F1F1" height="171.2656" id="Valor" rx="2.5" ry="2.5" style="stroke:#181818;stroke-width:0.5;" width="130" x="172" y="417"/><ellipse cx="216.25" cy="433" fill="#EB937F" rx="11" ry="11" style="stroke:#181818;stroke-width:1.0;"/><path d="M215.1094,433.7969 L215.1094,436.2969 L219.4375,436.2969 L219.4375,435.375 Q219.4375,434.7656 219.6719,434.5 Q219.9219,434.2344 220.2969,434.2344 Q220.6719,434.2344 220.9063,434.5 Q221.1406,434.7656 221.1406,435.375 L221.1406,438 L213.1406,438 Q212.5156,438 212.25,437.7656 Q212,437.5313 212,437.1406 Q212,436.7656 212.2656,436.5313 Q212.5313,436.2969 213.1406,436.2969 L213.4063,436.2969 L213.4063,429.6406 L213.1406,429.6406 Q212.5156,429.6406 212.25,429.4063 Q212,429.1719 212,428.7813 Q212,428.4063 212.25,428.1719 Q212.5156,427.9375 213.1406,427.9375 L220.7656,427.9375 L220.7656,430.5313 Q220.7656,431.1406 220.5313,431.4063 Q220.3125,431.6563 219.9219,431.6563 Q219.5469,431.6563 219.3125,431.4063 Q219.0781,431.1406 219.0781,430.5313 L219.0781,429.6406 L215.1094,429.6406 L215.1094,432.0938 L216.5938,432.0938 Q216.5938,431.4375 216.7188,431.25 Q216.9844,430.8438 217.4531,430.8438 Q217.8281,430.8438 218.0625,431.1094 Q218.2969,431.3594 218.2969,431.9688 L218.2969,433.9375 Q218.2969,434.4844 218.1719,434.6719 Q217.9063,435.0625 217.4531,435.0625 Q216.9844,435.0625 216.7188,434.6563 Q216.5938,434.4688 216.5938,433.7969 L215.1094,433.7969 Z " fill="#000000"/><text fill="#000000" font-family="sans-serif" font-size="14" lengthAdjust="spacing" textLength="33" x="236.75" y="438.7285">Valor</text><line style="stroke:#181818;stroke-width:0.5;" x1="173" x2="301" y1="449" y2="449"/><ellipse cx="183" cy="463.3047" fill="none" rx="3" ry="3" style="stroke:#038048;stroke-width:1.0;"/><text fill="#000000" font-family="sans-serif" font-size="14" lengthAdjust="spacing" textLength="18" x="192" y="467.5332">AS</text><ellipse cx="183" cy="480.9141" fill="none" rx="3" ry="3" style="stroke:#038048;stroke-width:1.0;"/><text fill="#000000" font-family="sans-serif" font-size="14" lengthAdjust="spacing" textLength="33" x="192" y="485.1426">DOIS</text><ellipse cx="183" cy="498.5234" fill="none" rx="3" ry="3" style="stroke:#038048;stroke-width:1.0;"/><text fill="#000000" font-family="sans-serif" font-size="14" lengthAdjust="spacing" textLength="37" x="192" y="502.752">TRES</text><text fill="#000000" font-family="sans-serif" font-size="14" lengthAdjust="spacing" textLength="12" x="192" y="520.3613">...</text><ellipse cx="183" cy="533.7422" fill="none" rx="3" ry="3" style="stroke:#038048;stroke-width:1.0;"/><text fill="#000000" font-family="sans-serif" font-size="14" lengthAdjust="spacing" textLength="39" x="192" y="537.9707">DAMA</text><ellipse cx="183" cy="551.3516" fill="none" rx="3" ry="3" style="stroke:#038048;stroke-width:1.0;"/><text fill="#000000" font-family="sans-serif" font-size="14" lengthAdjust="spacing" textLength="22" x="192" y="555.5801">REI</text><line style="stroke:#181818;stroke-width:1.0;" x1="173" x2="301" y1="562.6563" y2="562.6563"/><text fill="#000000" font-family="sans-serif" font-size="14" lengthAdjust="spacing" textLength="118" x="178" y="581.1895">// Valores inferidos</text></g><!--class Carta--><g id="elem_Carta"><rect codeLine="31" fill="#F1F1F1" height="118.4375" id="Carta" rx="2.5" ry="2.5" style="stroke:#181818;stroke-width:0.5;" width="230" x="39" y="221"/><ellipse cx="132.25" cy="237" fill="#ADD1B2" rx="11" ry="11" style="stroke:#181818;stroke-width:1.0;"/><path d="M135.0156,232.875 Q135.1719,232.6563 135.3594,232.5469 Q135.5469,232.4375 135.7656,232.4375 Q136.1406,232.4375 136.375,232.7031 Q136.6094,232.9531 136.6094,233.5625 L136.6094,235.0156 Q136.6094,235.625 136.375,235.8906 Q136.1406,236.1563 135.7656,236.1563 Q135.4219,236.1563 135.2188,235.9531 Q135.0156,235.7656 134.9063,235.25 Q134.8594,234.8906 134.6719,234.7031 Q134.3438,234.3281 133.7344,234.1094 Q133.125,233.8906 132.5,233.8906 Q131.7344,233.8906 131.0938,234.2188 Q130.4688,234.5469 129.9688,235.2969 Q129.4844,236.0469 129.4844,237.0781 L129.4844,238.1719 Q129.4844,239.4063 130.375,240.2344 Q131.2656,241.0469 132.8594,241.0469 Q133.7969,241.0469 134.4531,240.7969 Q134.8438,240.6406 135.2656,240.2031 Q135.5313,239.9375 135.6719,239.8594 Q135.8281,239.7813 136.0313,239.7813 Q136.3594,239.7813 136.6094,240.0469 Q136.875,240.2969 136.875,240.6406 Q136.875,240.9844 136.5313,241.3906 Q136.0313,241.9688 135.2344,242.2969 Q134.1563,242.75 132.8594,242.75 Q131.3438,242.75 130.1406,242.125 Q129.1563,241.625 128.4688,240.5625 Q127.7813,239.4844 127.7813,238.2031 L127.7813,237.0469 Q127.7813,235.7188 128.3906,234.5781 Q129.0156,233.4219 130.1094,232.8125 Q131.2031,232.1875 132.4375,232.1875 Q133.1719,232.1875 133.8125,232.3594 Q134.4688,232.5156 135.0156,232.875 Z " fill="#000000"/><text fill="#000000" font-family="sans-serif" font-size="14" lengthAdjust="spacing" textLength="35" x="152.75" y="242.7285">Carta</text><line style="stroke:#181818;stroke-width:0.5;" x1="40" x2="268" y1="253" y2="253"/><rect fill="none" height="6" style="stroke:#C82930;stroke-width:1.0;" width="6" x="47" y="264.3047"/><text fill="#000000" font-family="sans-serif" font-size="14" lengthAdjust="spacing" textLength="75" x="59" y="271.5332">Naipe naipe</text><rect fill="none" height="6" style="stroke:#C82930;stroke-width:1.0;" width="6" x="47" y="281.9141"/><text fill="#000000" font-family="sans-serif" font-size="14" lengthAdjust="spacing" textLength="68" x="59" y="289.1426">Valor valor</text><line style="stroke:#181818;stroke-width:0.5;" x1="40" x2="268" y1="296.2188" y2="296.2188"/><ellipse cx="50" cy="310.5234" fill="#84BE84" rx="3" ry="3" style="stroke:#038048;stroke-width:1.0;"/><text fill="#000000" font-family="sans-serif" font-size="14" lengthAdjust="spacing" textLength="204" x="59" y="314.752">Carta(naipe: Naipe, valor: Valor)</text><ellipse cx="50" cy="328.1328" fill="#84BE84" rx="3" ry="3" style="stroke:#038048;stroke-width:1.0;"/><text fill="#000000" font-family="sans-serif" font-size="14" lengthAdjust="spacing" textLength="104" x="59" y="332.3613">toString(): String</text></g><!--class Baralho--><g id="elem_Baralho"><rect codeLine="42" fill="#F1F1F1" height="136.0469" id="Baralho" rx="2.5" ry="2.5" style="stroke:#181818;stroke-width:0.5;" width="152" x="78" y="7"/><ellipse cx="125.25" cy="23" fill="#ADD1B2" rx="11" ry="11" style="stroke:#181818;stroke-width:1.0;"/><path d="M128.0156,18.875 Q128.1719,18.6563 128.3594,18.5469 Q128.5469,18.4375 128.7656,18.4375 Q129.1406,18.4375 129.375,18.7031 Q129.6094,18.9531 129.6094,19.5625 L129.6094,21.0156 Q129.6094,21.625 129.375,21.8906 Q129.1406,22.1563 128.7656,22.1563 Q128.4219,22.1563 128.2188,21.9531 Q128.0156,21.7656 127.9063,21.25 Q127.8594,20.8906 127.6719,20.7031 Q127.3438,20.3281 126.7344,20.1094 Q126.125,19.8906 125.5,19.8906 Q124.7344,19.8906 124.0938,20.2188 Q123.4688,20.5469 122.9688,21.2969 Q122.4844,22.0469 122.4844,23.0781 L122.4844,24.1719 Q122.4844,25.4063 123.375,26.2344 Q124.2656,27.0469 125.8594,27.0469 Q126.7969,27.0469 127.4531,26.7969 Q127.8438,26.6406 128.2656,26.2031 Q128.5313,25.9375 128.6719,25.8594 Q128.8281,25.7813 129.0313,25.7813 Q129.3594,25.7813 129.6094,26.0469 Q129.875,26.2969 129.875,26.6406 Q129.875,26.9844 129.5313,27.3906 Q129.0313,27.9688 128.2344,28.2969 Q127.1563,28.75 125.8594,28.75 Q124.3438,28.75 123.1406,28.125 Q122.1563,27.625 121.4688,26.5625 Q120.7813,25.4844 120.7813,24.2031 L120.7813,23.0469 Q120.7813,21.7188 121.3906,20.5781 Q122.0156,19.4219 123.1094,18.8125 Q124.2031,18.1875 125.4375,18.1875 Q126.1719,18.1875 126.8125,18.3594 Q127.4688,18.5156 128.0156,18.875 Z " fill="#000000"/><text fill="#000000" font-family="sans-serif" font-size="14" lengthAdjust="spacing" textLength="49" x="145.75" y="28.7285">Baralho</text><line style="stroke:#181818;stroke-width:0.5;" x1="79" x2="229" y1="39" y2="39"/><rect fill="none" height="6" style="stroke:#C82930;stroke-width:1.0;" width="6" x="86" y="50.3047"/><text fill="#000000" font-family="sans-serif" font-size="14" lengthAdjust="spacing" textLength="116" x="98" y="57.5332">List&lt;Carta&gt; cartas</text><line style="stroke:#181818;stroke-width:1.0;" x1="79" x2="229" y1="64.6094" y2="64.6094"/><ellipse cx="89" cy="78.9141" fill="#84BE84" rx="3" ry="3" style="stroke:#038048;stroke-width:1.0;"/><text fill="#000000" font-family="sans-serif" font-size="14" lengthAdjust="spacing" textLength="59" x="98" y="83.1426">Baralho()</text><ellipse cx="89" cy="96.5234" fill="#84BE84" rx="3" ry="3" style="stroke:#038048;stroke-width:1.0;"/><text fill="#000000" font-family="sans-serif" font-size="14" lengthAdjust="spacing" textLength="104" x="98" y="100.752">toString(): String</text><ellipse cx="89" cy="114.1328" fill="#84BE84" rx="3" ry="3" style="stroke:#038048;stroke-width:1.0;"/><text fill="#000000" font-family="sans-serif" font-size="14" lengthAdjust="spacing" textLength="116" x="98" y="118.3613">embaralhar(): void</text><ellipse cx="89" cy="131.7422" fill="#84BE84" rx="3" ry="3" style="stroke:#038048;stroke-width:1.0;"/><text fill="#000000" font-family="sans-serif" font-size="14" lengthAdjust="spacing" textLength="126" x="98" y="135.9707">retirarCarta(): Carta</text></g><!--reverse link Baralho to Carta--><g id="link_Baralho_Carta"><path codeLine="56" d="M154,155.03 C154,180.21 154,196.6 154,220.89 " fill="none" id="Baralho-backto-Carta" style="stroke:#181818;stroke-width:1.0;"/><polygon fill="#181818" points="154,143.03,150,149.03,154,155.03,158,149.03,154,143.03" style="stroke:#181818;stroke-width:1.0;"/><text fill="#000000" font-family="sans-serif" font-size="13" lengthAdjust="spacing" textLength="43" x="155" y="187.4951">cont&#233;m</text><text fill="#000000" font-family="sans-serif" font-size="13" lengthAdjust="spacing" textLength="7" x="146.6391" y="164.3814">1</text><text fill="#000000" font-family="sans-serif" font-size="13" lengthAdjust="spacing" textLength="14" x="139.1469" y="210.2008">52</text></g><!--reverse link Carta to Naipe--><g id="link_Carta_Naipe"><path codeLine="59" d="M128.1661,350.467 C117.2961,379.687 108.26,403.99 96.97,434.35 " fill="none" id="Carta-backto-Naipe" style="stroke:#181818;stroke-width:1.0;"/><polygon fill="#181818" points="132.35,339.22,126.509,343.4488,128.1661,350.467,134.007,346.2381,132.35,339.22" style="stroke:#181818;stroke-width:1.0;"/><text fill="#000000" font-family="sans-serif" font-size="13" lengthAdjust="spacing" textLength="22" x="122" y="383.4951">tem</text><text fill="#000000" font-family="sans-serif" font-size="13" lengthAdjust="spacing" textLength="7" x="122.2848" y="360.9023">1</text><text fill="#000000" font-family="sans-serif" font-size="13" lengthAdjust="spacing" textLength="7" x="92.3183" y="423.5329">1</text></g><!--reverse link Carta to Valor--><g id="link_Carta_Valor"><path codeLine="60" d="M180.1464,350.4511 C189.0764,374.1811 195.35,390.86 205.11,416.77 " fill="none" id="Carta-backto-Valor" style="stroke:#181818;stroke-width:1.0;"/><polygon fill="#181818" points="175.92,339.22,174.2895,346.2444,180.1464,350.4511,181.7769,343.4267,175.92,339.22" style="stroke:#181818;stroke-width:1.0;"/><text fill="#000000" font-family="sans-serif" font-size="13" lengthAdjust="spacing" textLength="22" x="194" y="383.4951">tem</text><text fill="#000000" font-family="sans-serif" font-size="13" lengthAdjust="spacing" textLength="7" x="171.1649" y="360.9023">1</text><text fill="#000000" font-family="sans-serif" font-size="13" lengthAdjust="spacing" textLength="7" x="195.0687" y="406.2139">1</text></g><!--SRC=[jPJ1Zjem48RlUOeH5qBPi0A9IzIjPBAf6Wa8Ig1tatYtLfCOsGPfLVLfzh3gkO_0YzNsE9nQxINDmVxZ-JCUVPvOVUVTYKhQGj9GfOZMaX_FccMLw4hzqZ2uSCMFlE7w9GZ6y330OzAasyEcX73FJq91pQ2cjH6s4DXIVcB0u2jjX9mCjMN0kdFhS_y80AQG7ugyT2h9TmHLMkx8ezSxSh0YYinmVu_bC0MyUsAIcsg3dpwfY_Ya_jl7F4EnBr8hPhCPhfCDSQ98i_To3yOwMPEoJ24XnPv0cE4U54wi4N1M0bWBAmE- -IQ6ertPPeA4IaqTcSYZx-petf7QnOvu2DORkdYCvZkCndqdM9SMfMdGxZcSn83gVw1QaOAil-GGVXQoOvMbrGcehhzh_Zmu9C_UOrfpfJyw5f-WifFg-sJQEyD_eh3Bh3qw6vKsS16yTikIQIwfHCecuCIWx8fqJP8itv9DkjsRFsieIkCR8NCbwUkl5fOBB5z1c8ZMt23y-dPz5M1EIxD9qDj7yn5yY28OBHSZtufndyEcnILjsdz-ktJcs6m1ncuPp8oEsFh_4iLknkWV]--></g></svg>